<?xml version="1.0" encoding="UTF-8" standalone="no"?>
<svg
   xmlns:dc="http://purl.org/dc/elements/1.1/"
   xmlns:cc="http://creativecommons.org/ns#"
   xmlns:rdf="http://www.w3.org/1999/02/22-rdf-syntax-ns#"
   xmlns:svg="http://www.w3.org/2000/svg"
   xmlns="http://www.w3.org/2000/svg"
   xmlns:sodipodi="http://sodipodi.sourceforge.net/DTD/sodipodi-0.dtd"
   xmlns:inkscape="http://www.inkscape.org/namespaces/inkscape"
   width="802.25104mm"
   height="158.55551mm"
   viewBox="0 0 802.25103 158.55551"
   version="1.1"
   id="svg8"
   inkscape:version="1.0 (4035a4fb49, 2020-05-01)"
   sodipodi:docname="BCA_Life.svg">
  <defs
     id="defs2" />
  <sodipodi:namedview
     id="base"
     pagecolor="#ffffff"
     bordercolor="#666666"
     borderopacity="1.0"
     inkscape:pageopacity="0.0"
     inkscape:pageshadow="2"
     inkscape:zoom="0.014142136"
     inkscape:cx="-13258.948"
     inkscape:cy="4337.4724"
     inkscape:document-units="mm"
     inkscape:current-layer="layer1"
     inkscape:document-rotation="0"
     showgrid="false"
     inkscape:window-width="1366"
     inkscape:window-height="715"
     inkscape:window-x="-8"
     inkscape:window-y="-8"
     inkscape:window-maximized="1" />
  <metadata
     id="metadata5">
    <rdf:RDF>
      <cc:Work
         rdf:about="">
        <dc:format>image/svg+xml</dc:format>
        <dc:type
           rdf:resource="http://purl.org/dc/dcmitype/StillImage" />
        <dc:title></dc:title>
      </cc:Work>
    </rdf:RDF>
  </metadata>
  <g
     transform="translate(391.63606,-647.80048)"
     inkscape:label="Layer 1"
     inkscape:groupmode="layer"
     id="layer1">
    <path
       id="path1277"
       style="fill:#0060af;fill-opacity:1;stroke-width:0.126319"
       d="m -315.61136,806.29683 c -15.6916,-0.6297 -32.4464,-4.1893 -48.4693,-10.2973 -3.7359,-1.4242 -9.3297,-3.7778 -11.4681,-4.8255 -0.8477,-0.4152 -0.908,-0.513 -2.5685,-4.1557 -8.068,-17.7025 -12.5148,-35.8838 -13.4308,-54.9143 -0.1643,-3.4144 -0.087,-12.086 0.1362,-15.1295 1.3253,-18.1478 5.5439,-34.5435 13.1369,-51.0556 0.5945,-1.2925 1.2499,-2.6754 1.4568,-3.0732 l 0.3759,-0.7232 2.7382,-1.2043 c 14.8484,-6.5307 30.5927,-10.6842 46.6246,-12.3 17.4877,-1.7625 33.587,-0.69 50.3399,3.3537 10.6868,2.5796 20.5047,5.9869 31.6376,10.9798 l 0.9276,0.4161 0.9147,1.9301 c 7.934,16.7423 12.7791,34.3354 14.2663,51.8012 1.7478,20.5291 -1.4084,41.5927 -9.2827,61.9497 -1.8777,4.8555 -5.3006,12.5109 -5.7681,12.902 -0.5006,0.4185 -6.6583,3.018 -11.0194,4.6519 -2.8006,1.0492 -9.0784,3.0874 -12.0454,3.9108 -11.9012,3.3027 -23.6223,5.1557 -36.3284,5.7433 -2.3982,0.1109 -9.8012,0.1352 -12.1735,0.04 z m 13.5829,-3.4082 c 18.9315,-1.0204 38.1162,-5.5649 54.2915,-12.8602 l 1.2104,-0.546 1.229,-2.664 c 7.3568,-15.9485 11.6261,-31.8045 12.9715,-48.177 1.8836,-22.9164 -2.631,-47.0285 -13.0799,-69.8569 l -1.3394,-2.9263 -2.3466,-1.0303 c -18.6266,-8.1778 -37.3721,-12.7234 -56.14,-13.6133 -3.3571,-0.1591 -11.3126,-0.086 -14.6722,0.135 -18.4402,1.213 -34.8859,5.0783 -50.8723,11.9567 -3.3782,1.4534 -3.144,1.3129 -3.5065,2.1043 -0.1749,0.3832 -0.7242,1.5783 -1.2195,2.6558 -6.2256,13.5499 -10.3769,28.5038 -11.9874,43.1801 -0.584,5.3241 -0.7554,8.6003 -0.7613,14.5692 0,8.3944 0.552,15.1788 1.9175,23.2151 2.187,12.8756 6.5704,26.7646 12.0369,38.1395 l 0.552,1.1481 1.1318,0.5109 c 19.1313,8.6356 38.5819,13.4195 57.7062,14.193 2.8808,0.1165 9.5152,0.048 12.8783,-0.1337 z m -14.6402,-8.3 c -0.2376,-0.044 -0.2873,-0.1343 -0.2839,-0.5123 0.021,-1.0581 0.7419,-12.1207 0.806,-12.183 0.038,-0.038 1.3438,-0.014 2.9006,0.054 2.6069,0.1124 2.8784,0.1457 3.4361,0.4235 0.4437,0.2208 0.7149,0.4784 1.0144,0.9626 0.9766,1.5786 0.6184,4.303 -0.7053,5.3671 -0.6887,0.5536 -1.5066,0.7461 -3.1689,0.7461 h -1.4328 l -0.079,0.9028 c -0.043,0.4965 -0.118,1.6733 -0.1645,2.615 l -0.086,1.7122 -0.9745,-0.018 c -0.5357,-0.01 -1.1041,-0.041 -1.2626,-0.071 z m 4.9657,-7.2281 c 0.6202,-0.3011 0.8964,-0.8933 0.8967,-1.9229 0,-0.6854 -0.051,-0.8914 -0.2881,-1.1584 -0.3241,-0.365 -0.9919,-0.5534 -1.9775,-0.5578 -0.5249,0 -0.6773,0.043 -0.7266,0.215 -0.035,0.1198 -0.1016,0.9567 -0.1484,1.8596 l -0.085,1.6418 0.4916,0.05 c 1.0599,0.1066 1.4055,0.083 1.8373,-0.1267 z m 14.0343,6.5377 c -0.1585,-0.8826 -1.7383,-12.3323 -1.7044,-12.3556 0.021,-0.014 1.189,-0.1828 2.5985,-0.3756 2.8696,-0.3925 3.6724,-0.3452 4.4122,0.2598 0.6884,0.563 0.9678,1.3309 0.9689,2.6652 0,1.0165 -0.041,1.2473 -0.2919,1.6404 -0.1603,0.2516 -0.4754,0.5699 -0.6987,0.7073 l -0.4062,0.2498 0.3786,0.083 c 0.208,0.045 0.471,0.1066 0.584,0.1358 0.3857,0.1 1.125,0.9459 1.3327,1.5249 0.2876,0.8016 0.3984,2.705 0.1929,3.3262 -0.2286,0.6932 -0.702,1.2596 -1.3002,1.5562 -0.3426,0.1698 -1.3594,0.3772 -3.0361,0.6192 -1.3864,0.2001 -2.6191,0.3649 -2.7392,0.3661 -0.1463,0 -0.2421,-0.1305 -0.2913,-0.4024 z m 3.8934,-2.0097 c 0.2397,-0.076 0.5569,-0.297 0.7046,-0.491 0.5408,-0.7102 0.1624,-2.8185 -0.5752,-3.202 -0.2657,-0.138 -2.1098,-0.092 -2.2625,0.057 -0.049,0.048 0.4461,3.4508 0.5509,3.7801 0.055,0.173 0.7958,0.1057 1.5822,-0.1439 z m -0.7972,-5.9964 c 0.2241,-0.089 0.4982,-0.3314 0.6085,-0.5389 0.2659,-0.4998 0.2546,-1.467 -0.024,-2.0082 -0.3307,-0.6432 -0.6868,-0.7617 -1.8044,-0.6006 -0.9102,0.1313 -0.9301,0.1417 -0.8673,0.4608 0.035,0.1794 0.1301,0.8588 0.21,1.5094 0.079,0.6507 0.1686,1.2565 0.1971,1.3464 0.061,0.1913 1.0116,0.095 1.6791,-0.169 z m -31.4907,8.1718 c -1.0972,-0.1491 -2.0974,-0.4965 -2.6096,-0.9069 -1.2756,-1.0218 -1.3515,-2.1648 -0.5509,-8.2842 0.3069,-2.3443 0.5901,-4.2936 0.6292,-4.3317 0.065,-0.063 2.4273,0.1686 2.5114,0.2461 0.021,0.018 -0.2254,2.0152 -0.5447,4.4376 -0.3194,2.4225 -0.5805,4.7599 -0.5805,5.1944 0,0.7022 0.04,0.8291 0.3651,1.1446 0.6482,0.6297 1.8785,0.6492 2.5059,0.04 0.5043,-0.49 0.6498,-1.191 1.2443,-5.9997 l 0.5445,-4.4029 0.7776,0.079 c 0.4276,0.044 1.0113,0.1104 1.297,0.1484 l 0.5196,0.069 -0.6069,4.6903 c -0.3749,2.895 -0.7115,5.0149 -0.8797,5.5386 -0.3202,0.9972 -0.9547,1.755 -1.7595,2.1022 -0.6313,0.2724 -1.85,0.3723 -2.8628,0.2348 z m -10.1608,-1.4865 -1.2631,-0.3292 0.079,-0.7508 c 0.043,-0.413 0.1931,-1.3374 0.3341,-2.0543 0.3474,-1.772 0.335,-2.0554 -0.1074,-2.4865 -0.3685,-0.3581 -0.8863,-0.5407 -1.951,-0.6882 l -0.5855,-0.081 -0.5578,2.6569 c -0.3066,1.4613 -0.5715,2.675 -0.5881,2.6973 -0.03,0.04 -2.5162,-0.4614 -2.5768,-0.5202 -0.047,-0.045 2.7448,-12.5411 2.8162,-12.6105 0.1016,-0.099 5.2377,1.0757 5.883,1.3455 0.7681,0.321 1.4531,1.0463 1.6478,1.7447 0.1747,0.6295 0.085,1.8675 -0.205,2.8182 -0.253,0.8278 -0.9774,1.5701 -1.6518,1.6931 l -0.4752,0.087 0.5096,0.3586 c 0.7115,0.5009 0.7445,0.7927 0.3365,2.9589 -0.2553,1.355 -0.3273,2.0557 -0.2741,2.6761 0.04,0.4623 0.032,0.8346 -0.021,0.8272 -0.049,-0.01 -0.657,-0.1614 -1.3518,-0.3424 z m 0.1259,-8.25 c 0.3353,-0.306 0.6909,-1.2927 0.6879,-1.9079 0,-0.5216 -0.2598,-0.9738 -0.6593,-1.1601 -0.3694,-0.1721 -2.277,-0.5798 -2.3556,-0.5034 -0.075,0.073 -0.8091,3.392 -0.7609,3.4408 0.024,0.023 0.4357,0.147 0.9168,0.275 1.062,0.2824 1.7539,0.2364 2.1711,-0.1443 z m 52.0542,7.7956 c -0.8438,-0.2643 -1.6479,-1.1644 -2.0844,-2.3331 -0.5247,-1.4051 -1.229,-4.9276 -1.3153,-6.5787 -0.098,-1.8781 0.087,-2.482 1.007,-3.2858 0.802,-0.7007 1.905,-1.0634 3.2346,-1.0634 1.707,0 2.7524,0.8048 3.2943,2.5357 0.132,0.4203 0.2397,0.8232 0.2402,0.8953 0,0.1554 -2.1971,0.5911 -2.3122,0.4583 -0.045,-0.05 -0.1786,-0.3521 -0.2984,-0.6708 -0.4186,-1.1063 -1.0843,-1.5183 -1.9108,-1.1827 -0.5821,0.2364 -0.8779,0.7834 -0.8779,1.6238 0,0.8729 0.999,5.844 1.3205,6.5702 0.3612,0.8168 0.7451,1.1262 1.4819,1.195 1.1004,0.1026 1.5346,-0.6035 1.3079,-2.1266 -0.063,-0.4226 -0.1159,-0.8275 -0.118,-0.8999 0,-0.1277 2.2791,-0.6192 2.387,-0.5142 0.029,0.029 0.089,0.6073 0.1321,1.2857 0.061,0.9615 0.028,1.3928 -0.1381,1.9562 -0.2723,0.9097 -1.0322,1.692 -1.9418,1.9985 -0.8946,0.3014 -2.6564,0.372 -3.4079,0.1364 z m 9.1958,-2.5108 c -0.1606,-1.732 -0.7334,-11.6277 -0.6943,-12.0085 0.04,-0.3894 0.059,-0.4 1.5476,-0.8326 0.8289,-0.2409 1.5303,-0.4154 1.5581,-0.3877 0.2829,0.2795 6.6069,11.3706 6.526,11.4453 -0.059,0.055 -0.5342,0.2221 -1.0541,0.3709 -0.5199,0.1489 -1.016,0.2971 -1.1025,0.3293 -0.096,0.036 -0.4453,-0.4778 -0.9025,-1.3295 -0.4099,-0.7634 -0.8147,-1.414 -0.8996,-1.4457 -0.085,-0.032 -0.7239,0.1029 -1.42,0.2989 l -1.2653,0.3566 v 0.6159 c 0,0.3387 0.053,1.1019 0.1096,1.696 l 0.1058,1.0801 -0.8795,0.2513 c -1.7079,0.4883 -1.5446,0.5323 -1.6351,-0.4403 z m 3.909,-5.8707 c 0.043,-0.047 -0.517,-1.2621 -1.2441,-2.7003 -0.7268,-1.4382 -1.3248,-2.5309 -1.3285,-2.4282 0,0.2522 0.5075,5.097 0.58,5.4398 l 0.057,0.2722 0.9287,-0.2491 c 0.5109,-0.137 0.9636,-0.2875 1.0064,-0.3344 z m -77.9881,5.9578 c -0.8292,-0.2327 -0.8474,-0.2645 -0.6458,-1.1201 l 0.1016,-0.4314 -0.4538,0.3871 c -0.9297,0.7932 -2.0815,0.8462 -3.5126,0.1615 -2.2826,-1.092 -2.4778,-2.5976 -0.9946,-7.6652 0.9552,-3.2641 1.8053,-4.6316 3.1163,-5.0132 1.379,-0.4015 3.81,0.1433 4.9392,1.1069 0.5863,0.5 0.8332,0.9516 0.9734,1.7802 0.1117,0.6559 -0.073,2.4473 -0.2526,2.4473 -0.051,0 -0.2607,-0.052 -0.4649,-0.116 -0.2043,-0.064 -0.6919,-0.2024 -1.0835,-0.3078 l -0.712,-0.1917 0.1238,-0.7228 c 0.1016,-0.6016 0.086,-0.7995 -0.1016,-1.1809 -0.251,-0.5144 -1.0448,-0.9674 -1.6949,-0.9674 -0.4828,0 -1.1737,0.4397 -1.4684,0.9344 -0.2842,0.4773 -1.7759,5.6521 -1.8669,6.4756 -0.047,0.417 0,0.777 0.1302,1.0869 0.4,0.9302 1.6515,1.261 2.4717,0.6532 0.4273,-0.3168 1.102,-1.5219 1.2589,-2.2492 0.083,-0.3813 0.079,-0.3847 -0.6596,-0.5434 -0.408,-0.088 -0.7768,-0.1794 -0.8192,-0.2037 -0.118,-0.067 0.4212,-1.92 0.5591,-1.92 0.3887,0 3.8171,1.1751 3.7724,1.2931 -0.029,0.076 -0.45,1.5817 -0.9361,3.345 -0.486,1.7634 -0.9123,3.1996 -0.9477,3.1918 -0.034,-0.01 -0.4098,-0.1116 -0.8329,-0.2303 z m 26.1133,-22.4501 c -0.3984,-1.2662 -1.0893,-2.3459 -2.2714,-3.5513 -2.5196,-2.569 -6.3532,-4.1424 -10.1307,-4.158 -1.117,0 -1.8885,0.087 -3.7163,0.4385 -5.2491,1.0109 -8.3518,1.3703 -11.9171,1.3806 -2.8437,0.01 -3.3972,-0.059 -5.2538,-0.6404 -2.222,-0.6953 -4.1706,-1.9005 -6.0918,-3.7675 -2.6725,-2.5973 -4.2555,-5.5222 -4.6217,-8.5401 -0.304,-2.5034 0.063,-6.6718 0.7892,-8.9602 0.5324,-1.6779 1.3319,-3.2235 2.0762,-4.0119 l 0.2606,-0.2762 0.3556,0.545 c 0.8501,1.3025 2.2519,2.4261 4.2765,3.4278 1.5417,0.7628 3.1827,1.2858 7.0226,2.2387 14.9632,3.7129 21.8342,6.8794 26.3437,12.1409 3.3081,3.8596 5.2642,8.5476 5.497,13.1749 l 0.073,1.4631 h -1.2044 -1.2038 l -0.2839,-0.9016 z m 5.4735,0.1008 c 0,-2.0583 -0.779,-5.7613 -1.7301,-8.2248 -0.9115,-2.3611 -2.4956,-5.1613 -3.9886,-7.0511 -5.0306,-6.3673 -11.8838,-9.712 -28.303,-13.8133 -1.6913,-0.4225 -3.4791,-0.909 -3.9722,-1.0811 -5.3351,-1.8608 -9.025,-6.2716 -10.1389,-12.1196 -0.3056,-1.604 -0.3087,-4.9658 0,-6.5914 0.7962,-4.2818 2.8514,-8.2438 5.8193,-11.2186 3.4869,-3.4948 7.6732,-5.2449 13.9885,-5.8477 5.4486,-0.52 11.747,2.4288 17.4011,8.147 6.3709,6.4428 10.7905,15.1553 12.4151,24.4723 0.7027,4.0315 0.7194,4.4535 0.7858,19.8424 l 0.061,14.2889 h -1.1663 -1.1663 v -0.803 z m 4.9471,0.2738 c -0.037,-0.2911 -0.097,-5.4043 -0.1341,-11.3626 -0.093,-14.9283 -0.2598,-18.6728 -1.0425,-23.597 -0.5659,-3.561 -1.4316,-6.8889 -2.5699,-9.8814 -1.3112,-3.4469 -4.0364,-8.1835 -6.2796,-10.9138 -0.4217,-0.5136 -1.8949,-2.0826 -3.2734,-3.4866 -1.3785,-1.404 -3.0104,-3.113 -3.6269,-3.7979 -5.2097,-5.7891 -7.6258,-11.4089 -7.6258,-17.7376 0,-6.9502 2.4021,-12.9321 6.9757,-17.3725 7.2827,-7.07 19.2995,-9.2177 29.55,-5.2813 5.6446,2.1677 10.183,6.1766 12.7399,11.2532 1.7376,3.4499 2.516,6.9511 2.5191,11.3315 0,4.0199 -0.7035,7.0179 -2.4939,10.5844 -1.6055,3.1979 -3.9278,6.1804 -8.0955,10.3976 -2.9551,2.9903 -3.7843,3.9088 -4.89,5.4183 -5.4605,7.454 -8.0269,15.2717 -8.6249,26.2726 -0.071,1.3012 -0.128,8.2916 -0.1299,15.5341 v 13.1682 h -1.4658 -1.4658 z m 5.3422,-13.2616 c 0.043,-8.4399 0.126,-14.4431 0.213,-15.4719 0.4197,-4.9254 1.5045,-9.7033 3.166,-13.9464 4.694,-11.9839 14.064,-21.404 23.2365,-23.3611 3.2946,-0.7029 9.4163,0.287 13.2065,2.1353 5.1218,2.4975 9.1548,7.8642 10.5092,13.9837 0.417,1.8836 0.4831,5.2408 0.1402,7.1798 -1.0128,5.7439 -4.4648,10.0877 -9.625,12.1116 -0.6035,0.2366 -2.654,0.8188 -4.5569,1.2937 -17.359,4.332 -24.0758,7.7961 -28.9367,14.9235 -1.778,2.607 -3.3591,6.2693 -4.0492,9.3771 -0.2974,1.3407 -0.6514,4.0421 -0.6514,4.9733 v 0.5922 h -1.3615 -1.3616 z m 5.0904,13.0748 c 0,-1.0763 0.3349,-3.2868 0.7112,-4.7476 1.5033,-5.8341 5.48,-10.9981 10.9095,-14.1669 4.3995,-2.5676 10.0277,-4.5393 20.7285,-7.2615 2.1164,-0.5384 4.2231,-1.1162 4.6813,-1.284 2.8043,-1.0269 5.3102,-2.7507 6.2402,-4.2926 l 0.3321,-0.5509 0.3037,0.353 c 1.8471,2.148 2.875,5.8727 2.8805,10.4393 0,3.055 -0.2661,4.3991 -1.2993,6.4752 -2.1207,4.2599 -6.0868,7.5155 -10.4857,8.6078 -3.0726,0.7629 -8.5575,0.4261 -15.7832,-0.9692 -2.993,-0.5779 -4.6652,-0.6535 -6.4712,-0.2922 -5.0435,1.0086 -8.9419,3.9669 -10.1333,7.6896 l -0.2289,0.716 h -1.194 -1.1941 v -0.716 z m 267.109303,27.1663 c -0.2821,-0.025 -1.3774,-0.1064 -2.4347,-0.1815 -9.6769,-0.6867 -19.1127,-3.2628 -26.3972,-7.2068 -14.1894,-7.6824 -22.9825,-20.7537 -25.1786,-37.429 -2.5484,-19.3486 5.029,-41.2133 20.1734,-58.2094 14.1883,-15.9234 33.5016,-25.9069 55.162,-28.5151 5.2128003,-0.6277 12.0385003,-0.8411 14.5989003,-0.4564 1.625,0.2442 4.3958,0.9298 6.3939,1.5821 0.8223,0.2684 1.5364,0.4879 1.5872,0.4879 0.051,0 0.8766,-0.9757 1.8348997,-2.1682 l 1.7426,-2.1683 1.1824,0.6063 c 21.6919,11.1216 26.4258,13.5655 26.4578,13.6588 0.037,0.1054 -19.7318,35.0893 -19.9562,35.3171 -0.057,0.058 -0.7014,-0.3403 -1.4303,-0.8861 -7.3041,-5.4666 -15.3796997,-8.5795 -24.0072997,-9.2538 -2.3138,-0.1808 -6.8339003,-0.088 -9.2260003,0.1891 -9.3192,1.0804 -17.1466,4.59 -23.0658,10.3421 -5.243,5.0947 -8.8004,11.8188 -10.0762,19.0454 -0.3336,1.8895 -0.4654,5.968 -0.2503,7.745 0.9282,7.6699 4.9348,14.1147 11.3776,18.3006 3.0139,1.9582 7.1771,3.556 11.3012,4.3374 3.2295,0.6119 4.7008,0.7394 8.5992,0.7449 3.932,0.01 4.9554,-0.1011 8.2944003,-0.8648 6.7109,-1.5349 15.6411,-5.1885 20.8089997,-8.5138 l 1.1041,-0.7106 -0.3516,0.7533 c -1.7357,3.7172 -19.3957997,40.135 -19.5140997,40.2405 -0.085,0.076 -0.9044,0.2828 -1.8203,0.4595 -0.9163,0.1769 -3.1727003,0.6323 -5.0142003,1.0121 -7.4062,1.5275 -9.0474,1.7065 -16.0655,1.7521 -2.9247,0.02 -5.5483,0.014 -5.8303,-0.01 z m -171.767503,-4.1918 c 0,-0.086 5.4398,-20.5245 12.0806,-45.4196 l 12.074,-45.2638 -1.2205,-0.079 c -0.6713,-0.043 -2.8784,-0.085 -4.9049,-0.093 -2.0262,-0.01 -3.6825,-0.057 -3.6806,-0.1079 0,-0.051 4.545,-8.6107 10.0957,-19.0207 l 10.0928,-18.9274 27.9302,-0.037 c 28.2226,-0.037 31.0555,0 34.3702,0.4161 14.634103,1.8513 23.938903,9.6807 26.113803,21.9727 0.33,1.865 0.3969,6.1568 0.1278,8.2206 -1.5232,11.6934 -10.8855,23.1723 -24.985103,30.6333 l -1.0171,0.538 0.4403,0.186 c 3.4377,1.4518 5.6443,2.7993 7.6332,4.6608 4.365903,4.0864 6.498203,9.1952 7.105903,17.0262 0.1911,2.4479 0.083,7.3262 -0.1971,9.0278 -1.3372,8.098 -5.2289,15.2867 -11.663903,21.5454 -9.0612,8.8128 -21.6331,14.0444 -35.4414,14.7481 -3.9148,0.1995 -64.9616,0.1747 -64.9531,-0.027 z m 64.3908,-32.8439 c 5.7211,-0.9504 10.1767,-4.0508 11.8478,-8.2443 1.0814,-2.7134 1.0176,-5.4817 -0.1807,-7.7922 -1.1433,-2.206 -3.1438,-3.7559 -5.9341,-4.5972 l -1.1271,-0.3399 -8.2518,-0.042 c -4.5387,-0.023 -8.2971,0 -8.3524,0.059 -0.055,0.055 -1.3465,4.751 -2.8694,10.4354 -1.5232,5.6844 -2.7998,10.4334 -2.8369,10.5533 -0.063,0.2059 0.3794,0.2179 8.0653,0.2179 7.5592,0 8.2392,-0.018 9.6383,-0.2501 z m 8.8996,-44.0028 c 6.4904,-1.1152 10.0745,-4.724 10.7934,-10.8676 0.2698,-2.3079 -0.2061,-3.9734 -1.4918,-5.2191 -0.8823,-0.8546 -1.7277,-1.2986 -3.2149,-1.6885 -0.966,-0.2533 -1.465,-0.2759 -8.6887,-0.3932 -4.5021,-0.073 -7.7107,-0.079 -7.7777,-0.014 -0.099,0.097 -4.3566,18.0551 -4.3566,18.3773 0,0.081 2.3411,0.1044 6.7596,0.069 5.5769,-0.045 6.9723,-0.091 7.9767,-0.2641 z m 137.4857033,73.3603 c 7.0206997,-13.3754 46.1419997,-88.4195 46.1419997,-88.512 0,-0.067 -2.2175,-0.1277 -5.3642,-0.1467 l -5.3642,-0.032 10.2786,-18.367 10.2782,-18.367 31.6585,-0.032 31.658197,-0.031 0.079,1.1521 c 0.043,0.6336 1.316,29.3657 2.8281,63.8489 1.5121,34.4833 2.7649,63.0193 2.7842,63.4132 l 0.034,0.7163 h -21.1751 -21.175697 v -11.0825 -11.0825 h -14.5179 -14.518 l -4.7556,11.0514 -4.7559,11.0514 -23.0134,0.032 -23.0134997,0.032 1.9122,-3.6427 z m 82.7877997,-50.6809 c 0,-1.2499 -0.088,-8.3523 -0.1889,-15.7832 -0.1037,-7.4308 -0.1871,-14.8526 -0.1889,-16.4929 0,-1.8012 -0.049,-2.9355 -0.1199,-2.864 -0.1137,0.1158 -16.1287,36.7655 -16.2523,37.1948 -0.059,0.2059 0.399,0.2179 8.3455,0.2179 h 8.4082 v -2.2726 z" />
    <path
       id="path1264"
       d="m 219.36664,695.12743 c -5.7753,-1.2769 -10.7892,-5.7605 -12.5899,-11.2584 -0.5565,-1.6985 -0.6374,-2.4318 -0.626,-5.6557 0.01,-3.3223 0.083,-3.888 0.694,-5.4879 1.9232,-5.0393 5.4866,-8.5974 10.4738,-10.4587 2.3823,-0.8891 7.0432,-1.1255 9.5956,-0.4867 10.7738,2.6965 16.2055,14.312 11.3347,24.2385 -1.9883,4.0518 -6.1454,7.5391 -10.5478,8.8485 -2.1291,0.6333 -6.0884,0.7569 -8.3344,0.2604 z"
       style="fill:#f79420;fill-opacity:1;stroke-width:0.264583" />
    <path
       d="m 339.75204,794.99853 c -8.2301,-0.8653 -16.6052,-3.8767 -21.9604,-7.8961 -2.8027,-2.1037 -6.2474,-5.5266 -7.8674,-7.8182 -4.1333,-5.8462 -6.3026,-13.7685 -6.31,-23.0425 -0.01,-6.4454 0.7908,-11.3831 2.8535,-17.7034 3.8261,-11.7239 8.2179,-18.2446 17.0124,-25.2589 7.8021,-6.2227 14.0219,-9.2628 24.6063,-12.0271 6.6807,-1.7448 9.6223,-2.108 17.1979,-2.1233 10.8318,-0.022 17.5966,1.3224 25.3968,5.0468 10.8292,5.1704 16.7481,12.5997 19.0543,23.9168 0.7585,3.7221 1.0628,8.8738 0.7691,13.0254 -0.2273,3.2141 -1.3184,11.1346 -1.7949,13.0307 l -0.1995,0.7938 -35.143,0.067 -35.1428,0.067 0.1463,3.1079 c 0.1699,3.6076 0.6297,5.5154 1.9897,8.2552 1.3732,2.7656 3.1512,4.4696 6.2045,5.9459 2.9318,1.4176 5.2406,1.877 8.264,1.6446 5.7666,-0.4433 10.9952,-2.8869 13.8255,-6.4616 l 0.9956,-1.2575 16.9738,1.2303 c 9.3353,0.6766 17.1091,1.2754 17.2747,1.3306 0.367,0.1224 -1.6833,3.1542 -4.3982,6.504 -3.7806,4.6647 -10.3976,9.8581 -16.3565,12.8377 -7.8587,3.9295 -16.025,6.1404 -25.1354,6.8052 -4.3112,0.3145 -15.1855,0.3024 -18.2563,-0.021 z m 35.7928,-59.4666 c 0.085,-4.0704 -0.1704,-5.806 -1.1501,-7.8069 -2.35,-4.7994 -5.9227,-6.7686 -12.296,-6.7775 -3.3282,-0.01 -5.1755,0.4168 -8.0592,1.8389 -3.7523,1.8505 -6.8416,4.9077 -9.2755,9.1787 -1.1091,1.9462 -2.763,6.0486 -2.763,6.8536 0,0.3336 2.2336,0.376 16.7349,0.3169 l 16.7349,-0.068 z m -232.5102,57.1799 c 0,-0.2547 5.1197,-29.8533 11.377,-65.7747 6.2574,-35.9213 11.3769,-65.3596 11.3769,-65.4182 0,-0.059 7.62,-0.1066 16.9333,-0.1066 9.3133,0 16.9333,0.045 16.9333,0.1 0,0.055 -5.1197,29.5942 -11.3771,65.6428 -6.2573,36.0486 -11.377,65.6501 -11.377,65.7812 0,0.1391 -7.0589,0.2385 -16.9334,0.2385 -15.9506,0 -16.9333,-0.027 -16.933,-0.463 z m 42.8622,0.047 c 0,-0.415 15.4784,-90.1968 15.7448,-91.328 l 0.1403,-0.5953 h 16.9333 16.9333 l -0.1407,0.5953 c -0.1056,0.4469 -8.5302,49.365 -15.5149,90.0906 l -0.2837,1.6537 h -16.9063 c -15.2017,0 -16.9061,-0.042 -16.9061,-0.4163 z m 54.8965,-0.1771 c 0.1927,-0.8305 11.2493,-64.7721 11.2493,-65.0569 0,-0.1271 -2.9265,-0.231 -6.5032,-0.231 h -6.5034 l 0.1529,-0.7276 c 0.2699,-1.2832 4.3871,-25.1764 4.3871,-25.4588 0,-0.1789 2.2521,-0.2719 6.5847,-0.2719 h 6.5844 l 0.1839,-1.226 c 0.7104,-4.7377 3.3189,-13.0594 5.5684,-17.7639 3.7568,-7.8571 8.0229,-12.2623 15.4744,-15.9788 10.5622,-5.2677 25.1815,-5.9498 38.6607,-1.8037 l 2.5447,0.7828 -3.8751,11.4979 c -2.1315,6.3238 -3.9521,11.5746 -4.046,11.6684 -0.094,0.094 -1.2724,-0.018 -2.6188,-0.2499 -4.3471,-0.7467 -8.8866,-0.4515 -11.4832,0.7469 -3.7002,1.7078 -5.3359,4.5244 -6.3508,10.9372 l -0.1781,1.1245 h 9.4211 9.421 l -0.1376,0.5953 c -0.2074,0.896 -4.635,25.6371 -4.635,25.8999 0,0.1252 -4.2069,0.2277 -9.3488,0.2277 h -9.3488 l -1.0009,5.887 c -0.5503,3.2378 -3.0443,18.0313 -5.5422,32.8745 l -4.5413,26.9875 -17.1291,0.068 -17.1292,0.068 z"
       style="fill:#00a6b5;fill-opacity:1;stroke-width:0.264583"
       id="path1244" />
  </g>
</svg>
